<svg xmlns="http://www.w3.org/2000/svg" viewBox="0 0 652.62 312.03"><defs><style>.cls-1{fill:none;stroke:#000;stroke-miterlimit:11.34;stroke-width:0.99px;}</style></defs><g id="Layer_2" data-name="Layer 2"><g id="Layer_1-2" data-name="Layer 1"><g id="View"><path class="cls-1" d="M634.11,82.54A18,18,0,0,0,652,66.65a18.52,18.52,0,0,0,.12-2.11"/><path id="_2" data-name="2" class="cls-1" d="M652.12,64.54V56.62"/><path class="cls-1" d="M652.12,56.62a17.79,17.79,0,0,0-.12-2.06,18,18,0,0,0-5.39-10.91,18.36,18.36,0,0,0-4.5-3.16,18,18,0,0,0-8-1.87"/><path class="cls-1" d="M634.11,229.49A18,18,0,0,1,652,245.38a18.66,18.66,0,0,1,.12,2.11"/><path id="_5" data-name="5" class="cls-1" d="M652.12,247.49v7.92"/><path class="cls-1" d="M652.12,255.41a17.79,17.79,0,0,1-.12,2.06,18,18,0,0,1-5.39,10.91,18.36,18.36,0,0,1-4.5,3.16,17.88,17.88,0,0,1-8,1.87"/><path id="_1" data-name="1" class="cls-1" d="M159.06,43.16v-1"/><path id="_2-2" data-name="2" class="cls-1" d="M205.7,92.44H161.77"/><path class="cls-1" d="M209.3,88.84A3.58,3.58,0,0,1,208,91.61"/><path class="cls-1" d="M208,30.45a3.58,3.58,0,0,1,1.31,2.77"/><path id="_5-2" data-name="5" class="cls-1" d="M51.18,78.9H159.06"/><path id="_6" data-name="6" class="cls-1" d="M51.18,43.16v-1"/><path id="_7" data-name="7" class="cls-1" d="M51.18,42.18H159.06"/><path class="cls-1" d="M72.33,74.24l8.94.26,8.57.27,8.21.29,7.81.29,7.4.31,7,.33,6.53.33,6.08.35,5.61.35,5.13.36,4.63.37,4.13.38,3.61.38,3.1.39"/><path class="cls-1" d="M159.06,43.16l-3.1.39-3.61.38-4.13.38-4.63.37-5.13.36-5.61.35-6.08.35-6.53.33-7,.33-7.4.31L98.05,47l-8.21.29-8.57.27-8.94.26"/><path id="_10" data-name="10" class="cls-1" d="M161.77,29.62h-108"/><path class="cls-1" d="M50.9,26.78a2.84,2.84,0,0,0,2.83,2.84h0"/><path class="cls-1" d="M161.77,29.62a4.33,4.33,0,0,1,4.33,4.32"/><path id="_13" data-name="13" class="cls-1" d="M50.9,26.78V3.33"/><path id="_14" data-name="14" class="cls-1" d="M166.1,43.16V33.94"/><path class="cls-1" d="M48.06.5A2.84,2.84,0,0,1,50.9,3.33h0"/><path id="_16" data-name="16" class="cls-1" d="M166.1,43.16h-7"/><path id="_17" data-name="17" class="cls-1" d="M42,.5h6"/><path id="_18" data-name="18" class="cls-1" d="M42,.5V5.18"/><path id="_19" data-name="19" class="cls-1" d="M42,5.18h2.25"/><path id="_20" data-name="20" class="cls-1" d="M44.27,5.18v21.6"/><path id="_21" data-name="21" class="cls-1" d="M51.18,43.16H42"/><path id="_22" data-name="22" class="cls-1" d="M44.27,26.78H42"/><path id="_23" data-name="23" class="cls-1" d="M42,26.78V43.16"/><path id="_24" data-name="24" class="cls-1" d="M159.06,268.87v1"/><path id="_25" data-name="25" class="cls-1" d="M205.7,219.59H161.77"/><path class="cls-1" d="M209.3,223.19a3.6,3.6,0,0,0-1.31-2.77"/><path class="cls-1" d="M208,281.58a3.58,3.58,0,0,0,1.31-2.77"/><path id="_28" data-name="28" class="cls-1" d="M32.9,156V95.28"/><path id="_29" data-name="29" class="cls-1" d="M.5,156V3.33"/><path class="cls-1" d="M35.73,92.44a2.84,2.84,0,0,0-2.83,2.84h0"/><path id="_31" data-name="31" class="cls-1" d="M41.54.5H3.33"/><path class="cls-1" d="M41.54.5H42"/><path id="_33" data-name="33" class="cls-1" d="M35.73,92.44h5.81"/><path class="cls-1" d="M41.54,92.44H42"/><path id="_35" data-name="35" class="cls-1" d="M191.91,92.44H205.7"/><path id="_36" data-name="36" class="cls-1" d="M161.77,92.44H42"/><path class="cls-1" d="M161.77,92.44h29.9"/><path id="_38" data-name="38" class="cls-1" d="M209.3,88.84v-2.7"/><path class="cls-1" d="M191.67,29.62h-29.9"/><path id="_40" data-name="40" class="cls-1" d="M205.7,29.62H191.91"/><path id="_41" data-name="41" class="cls-1" d="M212.9,82.54H634.11"/><path id="_42" data-name="42" class="cls-1" d="M209.3,35v-1.8"/><path id="_43" data-name="43" class="cls-1" d="M634.11,38.62H212.9"/><path id="_44" data-name="44" class="cls-1" d="M166.1,88.12V78.9"/><path class="cls-1" d="M161.77,92.44a4.33,4.33,0,0,0,4.33-4.32"/><path id="_46" data-name="46" class="cls-1" d="M159.06,78.9h7"/><path id="_47" data-name="47" class="cls-1" d="M42,78.9V92.44"/><path id="_48" data-name="48" class="cls-1" d="M42,78.9h9.16"/><path id="_49" data-name="49" class="cls-1" d="M72.33,74.24,51.18,78.9"/><path id="_50" data-name="50" class="cls-1" d="M51.18,43.16l21.15,4.66"/><path class="cls-1" d="M166.1,78.9l-3.18-.42-3.8-.42-4.41-.41-5-.41-5.59-.39L138,76.46l-6.71-.37L124,75.73l-7.77-.34L108,75.05l-8.74-.31-9.2-.3-9.62-.29-10-.27"/><path id="_52" data-name="52" class="cls-1" d="M48.56,78.7l21.83-4.82"/><path class="cls-1" d="M42,78.9h3.82l.52,0h.49l.43,0,.38,0,.32,0,.26,0,.19,0,.13,0"/><path class="cls-1" d="M42,43.16h3.82l.52,0h.49l.43,0,.38,0,.32,0,.26,0,.19,0,.13,0"/><path id="_55" data-name="55" class="cls-1" d="M70.39,48.18,48.56,43.36"/><path class="cls-1" d="M166.1,43.16l-3.18.42-3.8.42-4.41.41-5,.41-5.59.39L138,45.6l-6.71.37-7.25.36-7.77.34L108,47l-8.74.31-9.2.3-9.62.29-10,.27"/><path id="_57" data-name="57" class="cls-1" d="M191.91,88.12V33.94"/><path id="_58" data-name="58" class="cls-1" d="M166.1,78.9V43.16"/><path class="cls-1" d="M41.54,5.18H42"/><path id="_60" data-name="60" class="cls-1" d="M41.54,5.18V.5"/><path id="_61" data-name="61" class="cls-1" d="M7.12,5.18H41.54"/><path class="cls-1" d="M41.54,26.78H42"/><path id="_63" data-name="63" class="cls-1" d="M41.54,26.78H7.12"/><path id="_64" data-name="64" class="cls-1" d="M48.56,78.7V43.36"/><path id="_65" data-name="65" class="cls-1" d="M41.54,43.16V26.78"/><path id="_66" data-name="66" class="cls-1" d="M41.54,78.9V43.16"/><path id="_67" data-name="67" class="cls-1" d="M41.54,92.44V78.9"/><path id="_68" data-name="68" class="cls-1" d="M51.18,233.13H159.06"/><path id="_69" data-name="69" class="cls-1" d="M51.18,268.87v1"/><path id="_70" data-name="70" class="cls-1" d="M51.18,269.85H159.06"/><path class="cls-1" d="M72.33,237.79l8.94-.26,8.57-.27,8.21-.28,7.81-.3,7.4-.31,7-.33,6.53-.33,6.08-.34,5.61-.36,5.13-.36,4.63-.37,4.13-.38,3.61-.38,3.1-.39"/><path class="cls-1" d="M159.06,268.88l-3.1-.39-3.61-.39-4.13-.38-4.63-.36-5.13-.37-5.61-.35-6.08-.35-6.53-.33-7-.32-7.4-.31-7.81-.3-8.21-.29-8.57-.27-8.94-.26"/><path id="_73" data-name="73" class="cls-1" d="M161.77,282.41h-108"/><path class="cls-1" d="M50.9,285.25a2.84,2.84,0,0,1,2.83-2.84"/><path class="cls-1" d="M161.77,282.41a4.33,4.33,0,0,0,4.33-4.32"/><path id="_76" data-name="76" class="cls-1" d="M50.9,285.25V308.7"/><path id="_77" data-name="77" class="cls-1" d="M166.1,268.88v9.21"/><path class="cls-1" d="M48.06,311.54a2.84,2.84,0,0,0,2.84-2.84h0"/><path id="_79" data-name="79" class="cls-1" d="M166.1,268.88h-7"/><path id="_80" data-name="80" class="cls-1" d="M42,311.54h6"/><path id="_81" data-name="81" class="cls-1" d="M42,311.54v-4.68"/><path id="_82" data-name="82" class="cls-1" d="M42,306.86h2.25"/><path id="_83" data-name="83" class="cls-1" d="M44.27,306.86v-21.6"/><path id="_84" data-name="84" class="cls-1" d="M51.18,268.88H42"/><path id="_85" data-name="85" class="cls-1" d="M44.27,285.26H42"/><path id="_86" data-name="86" class="cls-1" d="M42,285.26V268.88"/><path id="_87" data-name="87" class="cls-1" d="M32.9,156v60.73"/><path id="_88" data-name="88" class="cls-1" d="M.5,156V308.7"/><path class="cls-1" d="M35.73,219.59a2.84,2.84,0,0,1-2.83-2.84h0"/><path id="_90" data-name="90" class="cls-1" d="M41.54,311.54H3.33"/><path class="cls-1" d="M41.54,311.54H42"/><path id="_92" data-name="92" class="cls-1" d="M35.73,219.59h5.81"/><path class="cls-1" d="M41.54,219.59H42"/><path id="_94" data-name="94" class="cls-1" d="M191.91,219.59H205.7"/><path id="_95" data-name="95" class="cls-1" d="M161.77,219.59H42"/><path class="cls-1" d="M161.77,219.59h29.9"/><path id="_97" data-name="97" class="cls-1" d="M209.3,223.19v2.7"/><path class="cls-1" d="M191.67,282.41h-29.9"/><path id="_99" data-name="99" class="cls-1" d="M205.7,282.41H191.91"/><path id="_100" data-name="100" class="cls-1" d="M212.9,229.49H634.11"/><path id="_101" data-name="101" class="cls-1" d="M209.3,277v1.8"/><path id="_102" data-name="102" class="cls-1" d="M634.11,273.41H212.9"/><path class="cls-1" d="M.5,3.33A2.83,2.83,0,0,1,3.33.5h0"/><path id="_104" data-name="104" class="cls-1" d="M.5,156H32.9"/><path id="_105" data-name="105" class="cls-1" d="M7.12,26.78V5.18"/><path id="_106" data-name="106" class="cls-1" d="M5.9,94.1H27.5"/><path id="_107" data-name="107" class="cls-1" d="M5.9,115.7V94.1"/><path id="_108" data-name="108" class="cls-1" d="M27.5,94.1v21.6"/><path id="_109" data-name="109" class="cls-1" d="M27.5,115.7H5.9"/><path id="_110" data-name="110" class="cls-1" d="M5.9,126.5H27.5"/><path id="_111" data-name="111" class="cls-1" d="M27.5,126.5v21.6"/><path id="_112" data-name="112" class="cls-1" d="M27.5,148.1H5.9"/><path id="_113" data-name="113" class="cls-1" d="M5.9,148.1V126.5"/><path class="cls-1" d="M209.3,86.14a3.6,3.6,0,0,1,3.6-3.6h0"/><path class="cls-1" d="M212.9,38.62a3.6,3.6,0,0,1-3.6-3.6h0"/><path id="_116" data-name="116" class="cls-1" d="M70.39,73.88V48.18"/><path id="_117" data-name="117" class="cls-1" d="M166.1,223.91v9.22"/><path class="cls-1" d="M161.77,219.59a4.33,4.33,0,0,1,4.33,4.32"/><path id="_119" data-name="119" class="cls-1" d="M159.06,233.13h7"/><path id="_120" data-name="120" class="cls-1" d="M42,233.13V219.59"/><path id="_121" data-name="121" class="cls-1" d="M42,233.13h9.16"/><path id="_122" data-name="122" class="cls-1" d="M72.33,237.79l-21.15-4.66"/><path id="_123" data-name="123" class="cls-1" d="M51.18,268.88l21.15-4.67"/><path class="cls-1" d="M166.1,233.13l-3.18.42-3.8.42-4.41.42-5,.4-5.59.39-6.16.39-6.71.37-7.25.36-7.77.35L108,237l-8.74.32-9.2.3-9.62.28-10,.27"/><path id="_125" data-name="125" class="cls-1" d="M48.56,233.33l21.83,4.82"/><path class="cls-1" d="M42,233.13h3.25l.57,0h.52l.49,0,.43,0,.38,0,.32,0,.26,0,.19,0,.13,0"/><path class="cls-1" d="M42,268.88l2,0h2.33l.49,0,.43,0,.38,0,.32,0,.26,0,.19,0,.13,0"/><path id="_128" data-name="128" class="cls-1" d="M70.39,263.86l-21.83,4.81"/><path class="cls-1" d="M166.1,268.88l-3.18-.43-3.8-.42-4.41-.41-5-.41-5.59-.39-6.16-.38-6.71-.38L124,265.7l-7.77-.34L108,265l-8.74-.32-9.2-.3-9.62-.29-10-.26"/><path id="_130" data-name="130" class="cls-1" d="M191.91,223.91v54.18"/><path id="_131" data-name="131" class="cls-1" d="M166.1,233.13v35.75"/><path class="cls-1" d="M41.54,306.86H42"/><path id="_133" data-name="133" class="cls-1" d="M41.54,306.86v4.68"/><path id="_134" data-name="134" class="cls-1" d="M7.12,306.86H41.54"/><path class="cls-1" d="M41.54,285.26H42"/><path id="_136" data-name="136" class="cls-1" d="M41.54,285.26H7.12"/><path id="_137" data-name="137" class="cls-1" d="M48.56,233.33v35.34"/><path id="_138" data-name="138" class="cls-1" d="M41.54,268.88v16.38"/><path id="_139" data-name="139" class="cls-1" d="M41.54,233.13v35.75"/><path id="_140" data-name="140" class="cls-1" d="M41.54,219.59v13.54"/><path class="cls-1" d="M.5,308.7a2.84,2.84,0,0,0,2.83,2.84h0"/><path id="_142" data-name="142" class="cls-1" d="M7.12,285.26v21.6"/><path id="_143" data-name="143" class="cls-1" d="M5.9,217.94H27.5"/><path id="_144" data-name="144" class="cls-1" d="M5.9,196.34v21.6"/><path id="_145" data-name="145" class="cls-1" d="M27.5,217.94v-21.6"/><path id="_146" data-name="146" class="cls-1" d="M27.5,196.34H5.9"/><path id="_147" data-name="147" class="cls-1" d="M5.9,185.54H27.5"/><path id="_148" data-name="148" class="cls-1" d="M27.5,185.54v-21.6"/><path id="_149" data-name="149" class="cls-1" d="M27.5,163.94H5.9"/><path id="_150" data-name="150" class="cls-1" d="M5.9,163.94v21.6"/><path class="cls-1" d="M209.3,225.89a3.6,3.6,0,0,0,3.6,3.6h0"/><path class="cls-1" d="M212.9,273.41a3.6,3.6,0,0,0-3.6,3.6h0"/><path id="_153" data-name="153" class="cls-1" d="M70.39,238.15v25.71"/></g></g></g></svg>