<svg xmlns="http://www.w3.org/2000/svg" viewBox="0 0 652.62 179.45"><defs><style>.cls-1{fill:none;stroke:#000;stroke-miterlimit:11.34;stroke-width:0.99px;}</style></defs><g id="Layer_2" data-name="Layer 2"><g id="Layer_1-2" data-name="Layer 1"><g id="View001"><path class="cls-1" d="M.5,175.71a3.1,3.1,0,0,0,.1.81,2.91,2.91,0,0,0,.12.39,3.26,3.26,0,0,0,.67,1,3.22,3.22,0,0,0,2.34,1"/><path class="cls-1" d="M.5,175.71a3.1,3.1,0,0,0,.1.81,2.91,2.91,0,0,0,.12.39,3.26,3.26,0,0,0,.67,1,3.2,3.2,0,0,0,2.35,1"/><path class="cls-1" d="M50.9,175.71a3.1,3.1,0,0,1-.11.81,2.91,2.91,0,0,1-.12.39,3.26,3.26,0,0,1-.67,1,3.2,3.2,0,0,1-2.34,1"/><path class="cls-1" d="M209.3,174.27l-4.23-4.22"/><path id="_1" data-name="1" class="cls-1" d="M3.74,179h32"/><path id="_2" data-name="2" class="cls-1" d="M39,179H35.73"/><path class="cls-1" d="M206.06,179h-.36"/><path class="cls-1" d="M205.7,179h.36"/><path id="_5" data-name="5" class="cls-1" d="M39,179H53.73"/><path id="_6" data-name="6" class="cls-1" d="M3.74,179H47.66"/><path id="_7" data-name="7" class="cls-1" d="M39,179H35.73"/><path class="cls-1" d="M206.06,179h-.36"/><path class="cls-1" d="M47.66,179h6.07"/><path id="_10" data-name="10" class="cls-1" d="M53.73,179h152"/><path class="cls-1" d="M205.7,179h.36"/><path class="cls-1" d="M206.06,179h6.84"/><path id="_13" data-name="13" class="cls-1" d="M212.9,179H634.06"/><path class="cls-1" d="M634.06,179h14.77"/><path class="cls-1" d="M47.66,179a3.55,3.55,0,0,0,.46,0"/><path class="cls-1" d="M206.06,179a3.24,3.24,0,0,0,3.24-3.24h0"/><path class="cls-1" d="M648.83,179a3.25,3.25,0,0,0,3.24-3.12"/><path class="cls-1" d="M159.06,144.14,156,133l-3.61-11-4.13-10.81-4.63-10.61-5.13-10.39L132.85,80l-6.08-9.85-6.53-9.56-7-9.25-7.4-8.9-7.81-8.55-8.21-8.17L81.27,18l-8.94-7.37"/><path id="_19" data-name="19" class="cls-1" d="M161.77,144.14h-108"/><path class="cls-1" d="M50.9,144.14h2.83"/><path class="cls-1" d="M161.77,144.14h4.33"/><path class="cls-1" d="M48.06,144.14H50.9"/><path id="_23" data-name="23" class="cls-1" d="M42,144.14h6"/><path id="_24" data-name="24" class="cls-1" d="M.5,175.71V144.14"/><path id="_25" data-name="25" class="cls-1" d="M41.54,144.14H3.33"/><path class="cls-1" d="M41.54,144.14a3.84,3.84,0,0,0,.48,0"/><path id="_27" data-name="27" class="cls-1" d="M50.9,175.71V144.14"/><path id="_28" data-name="28" class="cls-1" d="M209.3,175.71v-1.44"/><path id="_29" data-name="29" class="cls-1" d="M652.07,175.83l0-1.41"/><path id="_30" data-name="30" class="cls-1" d="M191.91,170H205"/><path class="cls-1" d="M634.11,170H647.8"/><path id="_32" data-name="32" class="cls-1" d="M51.18,144.14,72.33,10.62"/><path class="cls-1" d="M42,144.14l.68,0,.67-.13.66-.19.63-.26.61-.32.57-.38.52-.43.49-.48.43-.53.38-.57.32-.6.26-.64.19-.65.13-.67"/><path id="_34" data-name="34" class="cls-1" d="M70.39.39,48.56,138.24"/><path class="cls-1" d="M166.1,144.14,162.92,132l-3.8-12-4.41-11.8-5-11.57-5.59-11.29-6.16-11-6.71-10.66L124,53.3l-7.77-9.92L108,33.87l-8.74-9.08L90,16.17,80.41,8,70.39.39"/><path class="cls-1" d="M191.91,170a27.34,27.34,0,0,1-25.81-25.81"/><path class="cls-1" d="M.5,144.14H3.33"/><path id="_38" data-name="38" class="cls-1" d="M191.91,170H205"/><path id="_39" data-name="39" class="cls-1" d="M205,170H191.91"/><path class="cls-1" d="M652.12,174.42a4.34,4.34,0,0,0-.26-1.63,4.51,4.51,0,0,0-1-1.52,4.44,4.44,0,0,0-1.49-1,4.32,4.32,0,0,0-1.62-.32"/><path class="cls-1" d="M212.9,170H205"/><path id="_42" data-name="42" class="cls-1" d="M634.11,170H212.9"/><path class="cls-1" d="M652.12,174.42A4.31,4.31,0,0,0,648,170h-.15"/><path class="cls-1" d="M647.8,170H634.11"/></g></g></g></svg>